# xmcd CD database file
#
# Track frame offsets:
#	150
#	21980
#	47429
#	67413
#	95951
#	113809
#	138075
#	163403
#	175987
#	202486
#	222724
#	247210
#
# Disc length: 3541 seconds
#
# Revision: 2
# Processed by: cddbd v1.5.2PL0 Copyright (c) Steve Scherf et al.
# Submitted via: CDex 1.70beta2
#
DISCID=cc0dd30c
DTITLE=Earl Klugh - Ultimate
DYEAR=2007
DGENRE=Jazz
TTITLE0=Angelina
TTITLE1=Living Inside Your Love
TTITLE2=Dr. Macumba
TTITLE3=Heart String
TTITLE4=Wishful Thinking
TTITLE5=Rainbow Man
TTITLE6=Brazilian Stomp
TTITLE7=Emily
TTITLE8=Midnight In San Juan
TTITLE9=Movin' On
TTITLE10=Jo Ann's Song
TTITLE11=Maybe Tonight
EXTD=YEAR: 2007
EXTT0=
EXTT1=
EXTT2=
EXTT3=
EXTT4=
EXTT5=
EXTT6=
EXTT7=
EXTT8=
EXTT9=
EXTT10=
EXTT11=
PLAYORDER=
